<svg width="126" height="32" viewBox="0 0 126 32" fill="none" xmlns="http://www.w3.org/2000/svg">
<path d="M49.8469 10.3669C50.8966 10.3669 51.7985 10.6257 52.5525 11.1431C53.3066 11.6606 53.8758 12.3555 54.2602 13.2278C54.6446 14.1001 54.8368 15.0612 54.8368 16.1109C54.8368 17.1606 54.6446 18.1216 54.2602 18.994C53.8758 19.8663 53.3066 20.5612 52.5525 21.0786C51.7985 21.5961 50.8966 21.8548 49.8469 21.8548C49.1816 21.8548 48.6124 21.7809 48.1392 21.6331C47.6809 21.5 47.2374 21.2782 46.8086 20.9677V27H44.0586V10.5444H46.2763L46.5646 11.5645C47.0378 11.1653 47.5331 10.8696 48.0505 10.6774C48.568 10.4704 49.1668 10.3669 49.8469 10.3669ZM49.4255 19.5927C50.2387 19.5927 50.8745 19.2749 51.3328 18.6391C51.7911 18.0034 52.0203 17.1606 52.0203 16.1109C52.0203 15.0612 51.7911 14.2184 51.3328 13.5827C50.8745 12.9469 50.2387 12.629 49.4255 12.629C48.5089 12.629 47.8214 12.9395 47.363 13.5605C46.9047 14.1815 46.6755 15.0316 46.6755 16.1109C46.6755 17.1902 46.9047 18.0403 47.363 18.6613C47.8214 19.2823 48.5089 19.5927 49.4255 19.5927Z" fill="white"/>
<path d="M59.8105 21.8548C58.8642 21.8548 58.1545 21.5887 57.6814 21.0564C57.2083 20.5094 56.9717 19.8071 56.9717 18.9496V5H59.7217V17.8185C59.7217 18.4099 59.7513 18.8313 59.8105 19.0827C59.8844 19.3192 60.0027 19.4671 60.1653 19.5262C60.3427 19.5706 60.6384 19.5927 61.0524 19.5927L60.8084 21.8548H59.8105Z" fill="white"/>
<path d="M65.4146 21.8548C64.4979 21.8548 63.7291 21.5591 63.1081 20.9677C62.502 20.3616 62.1989 19.5484 62.1989 18.5282C62.1989 17.5672 62.5463 16.7984 63.2412 16.2218C63.9361 15.6304 64.7567 15.2164 65.7029 14.9798C66.6491 14.7285 67.5584 14.588 68.4307 14.5585C68.4011 13.9079 68.2311 13.4422 67.9206 13.1613C67.6249 12.8804 67.1296 12.7399 66.4347 12.7399C65.9468 12.7399 65.4663 12.8065 64.9932 12.9395C64.5349 13.0726 64.0026 13.287 63.3964 13.5827L63.1525 11.3427C64.4979 10.6922 65.8433 10.3669 67.1888 10.3669C68.4899 10.3669 69.4804 10.7218 70.1606 11.4315C70.8554 12.1411 71.2029 13.2722 71.2029 14.8246V17.8185C71.2029 18.3804 71.2251 18.787 71.2694 19.0383C71.3286 19.2749 71.4173 19.4301 71.5356 19.504C71.6686 19.5632 71.883 19.5927 72.1787 19.5927H72.5335L72.2896 21.8548H71.2916C70.6854 21.8548 70.1753 21.7439 69.7614 21.5222C69.3474 21.2856 69.0295 20.9677 68.8077 20.5685C68.4529 20.9677 67.965 21.2856 67.344 21.5222C66.7378 21.7439 66.0947 21.8548 65.4146 21.8548ZM66.5678 19.748C66.8487 19.748 67.1666 19.6814 67.5214 19.5484C67.8763 19.4005 68.1868 19.2009 68.4529 18.9496V16.4214C67.5658 16.4657 66.7822 16.6579 66.1021 16.998C65.422 17.338 65.0819 17.8112 65.0819 18.4173C65.0819 18.8757 65.2002 19.2157 65.4368 19.4375C65.6733 19.6445 66.0503 19.748 66.5678 19.748Z" fill="white"/>
<path d="M77.1589 20.9012L72.546 10.5444H75.6065L78.4452 17.6855L81.3283 10.5444H84.3888L77.4472 27H74.6972L77.1589 20.9012Z" fill="white"/>
<path d="M89.0062 21.8548C88.2965 21.8548 87.646 21.7883 87.0546 21.6552C86.4779 21.5222 85.8792 21.3152 85.2582 21.0343L85.5021 18.6835C86.1231 19.0531 86.6997 19.334 87.232 19.5262C87.779 19.7036 88.3408 19.7923 88.9175 19.7923C90.0411 19.7923 90.6029 19.4227 90.6029 18.6835C90.6029 18.2843 90.4551 17.9812 90.1594 17.7742C89.8637 17.5524 89.3314 17.2937 88.5626 16.998C87.4685 16.5988 86.6628 16.1478 86.1453 15.6452C85.6278 15.1277 85.3691 14.4328 85.3691 13.5605C85.3691 12.5995 85.7387 11.8233 86.4779 11.2319C87.2172 10.6257 88.2152 10.3226 89.4719 10.3226C90.7286 10.3226 91.8745 10.6109 92.9094 11.1875L92.6654 13.5383C92.1036 13.1539 91.5714 12.8582 91.0687 12.6512C90.5808 12.4442 90.0633 12.3407 89.5163 12.3407C89.0431 12.3407 88.6735 12.4368 88.4074 12.629C88.156 12.8212 88.0304 13.0948 88.0304 13.4496C88.0304 13.7305 88.1043 13.9597 88.2521 14.1371C88.4148 14.3145 88.6365 14.4771 88.9175 14.625C89.1984 14.7581 89.6641 14.9503 90.3146 15.2016C91.3939 15.6156 92.1702 16.0739 92.6433 16.5766C93.1164 17.0645 93.3529 17.7224 93.3529 18.5504C93.3529 19.6001 92.9759 20.4133 92.2219 20.9899C91.4679 21.5665 90.396 21.8548 89.0062 21.8548Z" fill="white"/>
<path d="M101.245 10.3669C102.295 10.3669 103.196 10.6257 103.95 11.1431C104.704 11.6606 105.274 12.3555 105.658 13.2278C106.043 14.1001 106.235 15.0612 106.235 16.1109C106.235 17.1606 106.043 18.1216 105.658 18.994C105.274 19.8663 104.704 20.5612 103.95 21.0786C103.196 21.5961 102.295 21.8548 101.245 21.8548C100.579 21.8548 100.01 21.7809 99.5372 21.6331C99.0788 21.5 98.6353 21.2782 98.2065 20.9677V27H95.4565V10.5444H97.6743L97.9626 11.5645C98.4357 11.1653 98.931 10.8696 99.4484 10.6774C99.9659 10.4704 100.565 10.3669 101.245 10.3669ZM100.823 19.5927C101.637 19.5927 102.272 19.2749 102.731 18.6391C103.189 18.0034 103.418 17.1606 103.418 16.1109C103.418 15.0612 103.189 14.2184 102.731 13.5827C102.272 12.9469 101.637 12.629 100.823 12.629C99.9068 12.629 99.2193 12.9395 98.7609 13.5605C98.3026 14.1815 98.0734 15.0316 98.0734 16.1109C98.0734 17.1902 98.3026 18.0403 98.7609 18.6613C99.2193 19.2823 99.9068 19.5927 100.823 19.5927Z" fill="white"/>
<path d="M111.208 21.8548C110.262 21.8548 109.552 21.5887 109.079 21.0564C108.606 20.5094 108.37 19.8071 108.37 18.9496V5H111.12V17.8185C111.12 18.4099 111.149 18.8313 111.208 19.0827C111.282 19.3192 111.401 19.4671 111.563 19.5262C111.741 19.5706 112.036 19.5927 112.45 19.5927L112.206 21.8548H111.208Z" fill="white"/>
<path d="M114.417 6.10887H117.167V8.85887H114.417V6.10887ZM114.417 10.5444H117.167V21.6331H114.417V10.5444Z" fill="white"/>
<path d="M123.582 21.8548C122.606 21.8548 121.867 21.5739 121.364 21.0121C120.861 20.4355 120.61 19.748 120.61 18.9496V12.8065H119.035L119.279 10.5444H120.61V8.10484L123.36 7.81653V10.5444H125.8V12.8065H123.36V17.8185C123.36 18.4099 123.39 18.8239 123.449 19.0605C123.523 19.2823 123.663 19.4301 123.87 19.504C124.092 19.5632 124.484 19.5927 125.046 19.5927H125.8L125.556 21.8548H123.582Z" fill="white"/>
<path fill-rule="evenodd" clip-rule="evenodd" d="M32 3.05176e-05H0V32H32V3.05176e-05ZM15.94 20.1467C15.28 20.8067 14.2 20.8067 13.54 20.1467L8.34003 25.3467C11.88 28.8867 17.6134 28.8867 21.1467 25.3467C24.68 21.8067 24.6867 16.0734 21.1467 12.5401L15.9467 17.7401C16.6 18.4067 16.6 19.4801 15.94 20.1467ZM10.86 19.46C7.32002 15.9267 7.32002 10.1933 10.86 6.65334C14.3934 3.11334 20.1267 3.11334 23.66 6.66001L18.46 11.86C17.8 11.2 16.72 11.2 16.06 11.86C15.4 12.52 15.4 13.6 16.06 14.26L10.86 19.46Z" fill="#ED2F52"/>
</svg>
