<svg width="24" height="17" viewBox="0 0 24 17" fill="none" xmlns="http://www.w3.org/2000/svg">
<path d="M15.6 0C14.304 0 13.092 0.3 12 0.816C10.908 0.3 9.696 0 8.4 0C3.756 0 0 3.756 0 8.4C0 13.044 3.756 16.8 8.4 16.8C9.696 16.8 10.908 16.5 12 15.984C13.092 16.5 14.304 16.8 15.6 16.8C20.244 16.8 24 13.044 24 8.4C24 3.756 20.244 0 15.6 0ZM8.4 15.6C4.428 15.6 1.2 12.372 1.2 8.4C1.2 4.428 4.428 1.2 8.4 1.2C9.204 1.2 9.984 1.344 10.704 1.584C8.58 3.108 7.2 5.592 7.2 8.4C7.2 11.208 8.58 13.692 10.704 15.216C9.984 15.456 9.204 15.6 8.4 15.6ZM16.488 10.62C16.212 10.74 15.912 10.8 15.6 10.8C15.456 10.8 15.324 10.776 15.192 10.764C14.064 10.56 13.2 9.588 13.2 8.4C13.2 7.212 14.064 6.24 15.192 6.036C15.324 6.024 15.456 6 15.6 6C15.912 6 16.212 6.06 16.488 6.18C17.376 6.528 18 7.392 18 8.4C18 9.408 17.376 10.272 16.488 10.62Z" fill="white" fill-opacity="0.97"/>
</svg>
