<svg width="20" height="20" viewBox="0 0 20 20" fill="none" xmlns="http://www.w3.org/2000/svg">
<path d="M2.4212 2.42004V20H20V2.42004H2.4212ZM14.7674 9.22004H12.3462V12.85C12.3462 12.86 12.3462 12.87 12.3462 12.89C12.3462 12.91 12.3462 12.91 12.3462 12.93V13.02H12.3362C12.2661 14.24 11.2656 15.21 10.025 15.21C8.74437 15.21 7.70384 14.17 7.70384 12.89C7.70384 11.61 8.74437 10.57 10.025 10.57C10.1551 10.57 10.2851 10.59 10.4152 10.61V7.21004H12.6263H12.8464H14.7674V9.22004V9.22004Z" fill="white" fill-opacity="0.97"/>
<path d="M17.4587 0H0V17.28H1.0005V1H17.4587V0Z" fill="white" fill-opacity="0.97"/>
</svg>
