<svg width="20" height="20" viewBox="0 0 20 20" fill="none" xmlns="http://www.w3.org/2000/svg">
<path d="M20 0L6.99301 5.54386V13.3634C6.26374 12.5213 5.19481 11.9799 3.996 11.9799C1.78821 11.9799 0 13.7744 0 15.99C0 18.2055 1.78821 20 3.996 20C6.04396 20 7.71229 18.4461 7.94206 16.4612C7.96204 16.3108 7.99201 16.1604 7.99201 15.99V9.25313L19.001 4.5614V9.78446C18.2717 8.94236 17.2028 8.401 16.004 8.401C13.7962 8.401 12.008 10.1955 12.008 12.411C12.008 14.6266 13.7962 16.4211 16.004 16.4211C18.032 16.4211 19.6903 14.8972 19.95 12.9223C19.97 12.7519 20 12.5815 20 12.411V4.14035V3.04762V1.08271V0ZM3.996 18.9975C2.33766 18.9975 0.999001 17.6541 0.999001 15.99C0.999001 14.3258 2.33766 12.9825 3.996 12.9825C5.65435 12.9825 6.99301 14.3258 6.99301 15.99C6.99301 17.6541 5.65435 18.9975 3.996 18.9975ZM16.004 15.4185C14.3457 15.4185 13.007 14.0752 13.007 12.411C13.007 10.7469 14.3457 9.40351 16.004 9.40351C17.6623 9.40351 19.001 10.7469 19.001 12.411C19.001 14.0752 17.6623 15.4185 16.004 15.4185Z" fill="white" fill-opacity="0.97"/>
</svg>
