<svg width="24" height="17" viewBox="0 0 24 17" fill="none" xmlns="http://www.w3.org/2000/svg">
<path d="M16.4224 1.308C19.9958 1.896 22.7329 4.86 22.7329 8.4C22.7329 11.952 19.9958 14.916 16.4224 15.492V1.308ZM15.1552 0V16.8C20.0465 16.788 24 13.032 24 8.4C24 3.768 20.0465 0.012 15.1552 0Z" fill="white" fill-opacity="0.5"/>
<path d="M12.6462 0H11.3791V16.8H12.6462V0Z" fill="white" fill-opacity="0.5"/>
<path d="M8.87012 16.8C3.97888 16.8 0 13.032 0 8.4C0 3.768 3.97888 0 8.87012 0V1.2C4.67582 1.2 1.26716 4.428 1.26716 8.4C1.26716 12.372 4.67582 15.6 8.87012 15.6V16.8Z" fill="white" fill-opacity="0.5"/>
<path d="M6.14572 8.42403L8.87012 11.004V5.83203L6.14572 8.42403Z" fill="white" fill-opacity="0.5"/>
</svg>
