<svg width="20" height="20" viewBox="0 0 20 20" fill="none" xmlns="http://www.w3.org/2000/svg">
<path d="M10.02 15.21C11.26 15.21 12.26 14.24 12.33 13.02H12.34V12.93C12.34 12.92 12.34 12.91 12.34 12.89C12.34 12.87 12.34 12.87 12.34 12.85V9.21996H14.76V7.20996H12.84H12.62H10.4V10.6C10.27 10.58 10.15 10.56 10.01 10.56C8.73 10.56 7.69 11.6 7.69 12.88C7.69 14.17 8.73 15.21 10.02 15.21Z" fill="white" fill-opacity="0.97"/>
<path d="M2.42001 2.42004V20H19.99V2.42004H2.42001ZM18.99 19H3.42001V3.42004H18.99V19Z" fill="white" fill-opacity="0.97"/>
<path d="M17.45 0H0V17.28H1V1H17.45V0Z" fill="white" fill-opacity="0.97"/>
</svg>
