<svg width="21" height="20" viewBox="0 0 21 20" fill="none" xmlns="http://www.w3.org/2000/svg">
<path d="M3.36002 2.42004V20H20.93V2.42004H3.36002ZM15.7 9.22004H13.28V12.85C13.28 12.86 13.28 12.87 13.28 12.89C13.28 12.91 13.28 12.91 13.28 12.93V13.02H13.27C13.2 14.24 12.2 15.21 10.96 15.21C9.68002 15.21 8.64002 14.17 8.64002 12.89C8.64002 11.61 9.68002 10.57 10.96 10.57C11.09 10.57 11.22 10.59 11.35 10.61V7.21004H13.56H13.78H15.7V9.22004Z" fill="white" fill-opacity="0.97"/>
<path d="M18.39 0H0.940002V17.28H1.94V1H18.39V0Z" fill="white" fill-opacity="0.97"/>
</svg>
