<svg width="20" height="20" viewBox="0 0 20 20" fill="none" xmlns="http://www.w3.org/2000/svg">
<path d="M10.025 15.21C11.2656 15.21 12.2661 14.24 12.3362 13.02H12.3462V12.93C12.3462 12.92 12.3462 12.91 12.3462 12.89C12.3462 12.87 12.3462 12.87 12.3462 12.85V9.21996H14.7674V7.20996H12.8464H12.6263H10.4052V10.6C10.2751 10.58 10.1551 10.56 10.015 10.56C8.73437 10.56 7.69385 11.6 7.69385 12.88C7.69385 14.17 8.73437 15.21 10.025 15.21Z" fill="white" fill-opacity="0.5"/>
<path d="M2.42123 2.42004V20H20V2.42004H2.42123ZM18.9995 19H3.42173V3.42004H18.9995V19V19Z" fill="white" fill-opacity="0.5"/>
<path d="M17.4587 0H0V17.28H1.0005V1H17.4587V0Z" fill="white" fill-opacity="0.5"/>
</svg>
