<svg width="21" height="20" viewBox="0 0 21 20" fill="none" xmlns="http://www.w3.org/2000/svg">
<path d="M20.02 0L7 5.53V13.33C6.27 12.49 5.2 11.95 4 11.95C1.79 11.95 0 13.74 0 15.95C0 18.16 1.79 19.95 4 19.95C6.05 19.95 7.72 18.4 7.95 16.42C7.97 16.27 8 16.12 8 15.95V9.23L19.02 4.55V9.76C18.29 8.92 17.22 8.38 16.02 8.38C13.81 8.38 12.02 10.17 12.02 12.38C12.02 14.59 13.81 16.38 16.02 16.38C18.05 16.38 19.71 14.86 19.97 12.89C19.99 12.72 20.02 12.55 20.02 12.38V4.13V3.04V1.08V0ZM4 18.95C2.34 18.95 1 17.61 1 15.95C1 14.29 2.34 12.95 4 12.95C5.66 12.95 7 14.29 7 15.95C7 17.61 5.66 18.95 4 18.95ZM16.02 15.38C14.36 15.38 13.02 14.04 13.02 12.38C13.02 10.72 14.36 9.38 16.02 9.38C17.68 9.38 19.02 10.72 19.02 12.38C19.02 14.04 17.68 15.38 16.02 15.38ZM19.02 3.47L8 8.15V6.19L19.02 1.51V3.47Z" fill="white" fill-opacity="0.97"/>
</svg>
