<svg width="21" height="20" viewBox="0 0 21 20" fill="none" xmlns="http://www.w3.org/2000/svg">
<path d="M20.95 0L7.92999 5.53V13.33C7.19999 12.49 6.12999 11.95 4.92999 11.95C2.71999 11.95 0.929993 13.74 0.929993 15.95C0.929993 18.16 2.71999 19.95 4.92999 19.95C6.97999 19.95 8.64999 18.4 8.87999 16.42C8.89999 16.27 8.92999 16.12 8.92999 15.95V9.23L19.95 4.55V9.76C19.22 8.92 18.15 8.38 16.95 8.38C14.74 8.38 12.95 10.17 12.95 12.38C12.95 14.59 14.74 16.38 16.95 16.38C18.98 16.38 20.64 14.86 20.9 12.89C20.92 12.72 20.95 12.55 20.95 12.38V4.13V3.04V1.08V0ZM4.92999 18.95C3.26999 18.95 1.92999 17.61 1.92999 15.95C1.92999 14.29 3.26999 12.95 4.92999 12.95C6.58999 12.95 7.92999 14.29 7.92999 15.95C7.92999 17.61 6.58999 18.95 4.92999 18.95ZM16.95 15.38C15.29 15.38 13.95 14.04 13.95 12.38C13.95 10.72 15.29 9.38 16.95 9.38C18.61 9.38 19.95 10.72 19.95 12.38C19.95 14.04 18.61 15.38 16.95 15.38Z" fill="white" fill-opacity="0.97"/>
</svg>
